# xmcd CD database file
#
# Track frame offsets:
#	183
#	13148
#	24843
#	36735
#	47160
#	58895
#	69940
#	81043
#	92635
#	103978
#	115240
#	126608
#	137860
#	150858
#	162715
#	173598
#	187140
#	200715
#	211863
#	225525
#	238753
#	251870
#	264338
#
# Disc length: 3708 seconds
#
# Revision: 0
# Processed by: cddbd v1.5.1PL0 Copyright (c) Steve Scherf et al.
# Submitted via: CDex 1.51
#
DISCID=510e7a17
DTITLE=The New Orleans Rhythm Kings - Complete Vol.1 1922-23
DYEAR=1900
DGENRE=Jazz
TTITLE0=Eccentric (Friars Society Orchestra, 1922, Gennett 5009_11178B)
TTITLE1=Farewell Blues (Friars Society Orchestra, 1922, Gennett 4966_11179C)
TTITLE2=Discontented Blues (Friars Society Orchestra, 1922, Gennett 4967_11180A)
TTITLE3=Bugle Call Rag (Friars Society Orchestra, 1922, Gennett 4967_11181B)
TTITLE4=Panama (Friars Society Orchestra, 1922, Gennett 4968_11182B)
TTITLE5=Tiger Rag (Friars Society Orchestra, 1922, Gennett 4968_11183C)
TTITLE6=Livery stable Blues (Friars Society Orchestra, 1922, Paramount 14028_11184)
TTITLE7=Oriental (Friars Society Orchestra, 1922, Gennett 4966_11185)
TTITLE8=Sweet lovin' Man (1923, Gennett 5104_11352)
TTITLE9=Sweet lovin' Man (1923, Gennett 5104_11352A)
TTITLE10=That's a Plenty (1923, Gennett 5105_11353)
TTITLE11=That's a Plenty (1923, Gennett 5105_11353A)
TTITLE12=Shimeshewabble (1923, Gennett 5106_11354B)
TTITLE13=Weary Blues (1923, Gennett 5102_11355B)
TTITLE14=That Da Da Strain (1923, Gennett 5106_11356)
TTITLE15=Wolverine Blues (1923, Gennett 5102_11357A)
TTITLE16=Wolverine Blues (1923, Gennett 5102_11357B)
TTITLE17=Maple Leaf Rag (1923, Gennett 5104_11358B)
TTITLE18=Tin Roof Blues (1923, Gennett 5105_11359)
TTITLE19=Tin Roof Blues (1923, Gennett 5105_11359A)
TTITLE20=Tin Roof Blues (1923, Gennett 5105_11359B)
TTITLE21=Sobbin' Blues (1923, Gennett 5219_11535A)
TTITLE22=Marguerite (1923, Gennett 5217_11536A)
EXTD=
EXTT0=
EXTT1=
EXTT2=
EXTT3=
EXTT4=
EXTT5=
EXTT6=
EXTT7=
EXTT8=
EXTT9=
EXTT10=
EXTT11=
EXTT12=
EXTT13=
EXTT14=
EXTT15=
EXTT16=
EXTT17=
EXTT18=
EXTT19=
EXTT20=
EXTT21=
EXTT22=
PLAYORDER=
